<svg aria-hidden="true" style="position: absolute; width: 0; height: 0; overflow: hidden;" version="1.1" xmlns="http://www.w3.org/2000/svg" xmlns:xlink="http://www.w3.org/1999/xlink">
<defs>
    <symbol id="icon-d-square-product" viewBox="0 0 35 32">
        <path fill="#9197b3" style="fill: var(--color1, #9197b3)" d="M21.647 30.333h-8.627c-7.808 0-11.144-3.093-11.144-10.333v-8c0-7.24 3.336-10.333 11.144-10.333h8.627c7.808 0 11.144 3.093 11.144 10.333v8c0 7.24-3.336 10.333-11.144 10.333zM13.020 3.667c-6.629 0-8.987 2.187-8.987 8.333v8c0 6.147 2.358 8.333 8.987 8.333h8.627c6.629 0 8.987-2.187 8.987-8.333v-8c0-6.147-2.358-8.333-8.987-8.333h-8.627z"></path>
        <path fill="#9197b3" style="fill: var(--color1, #9197b3)" d="M17.334 17.44c-0.187 0-0.374-0.040-0.546-0.133l-7.621-4.080c-0.518-0.28-0.69-0.893-0.388-1.36 0.302-0.48 0.963-0.64 1.467-0.36l7.075 3.8 7.031-3.773c0.518-0.28 1.179-0.107 1.467 0.36s0.115 1.093-0.388 1.36l-7.563 4.053c-0.158 0.080-0.345 0.133-0.532 0.133z"></path>
        <path fill="#9197b3" style="fill: var(--color1, #9197b3)" d="M17.333 24.693c-0.59 0-1.078-0.453-1.078-1v-7.253c0-0.547 0.489-1 1.078-1s1.078 0.453 1.078 1v7.253c0 0.547-0.489 1-1.078 1z"></path>
        <path fill="#9197b3" style="fill: var(--color1, #9197b3)" d="M17.334 25c-0.834 0-1.653-0.173-2.315-0.507l-4.601-2.373c-1.38-0.707-2.444-2.4-2.444-3.867v-4.52c0-1.453 1.078-3.147 2.444-3.867l4.601-2.373c1.323-0.68 3.307-0.68 4.63 0l4.601 2.373c1.38 0.707 2.445 2.4 2.445 3.867v4.52c0 1.453-1.079 3.147-2.445 3.867l-4.601 2.373c-0.661 0.347-1.481 0.507-2.315 0.507zM17.334 9c-0.475 0-0.935 0.080-1.265 0.253l-4.601 2.373c-0.705 0.36-1.337 1.373-1.337 2.107v4.52c0 0.747 0.633 1.747 1.337 2.107l4.601 2.373c0.661 0.347 1.869 0.347 2.531 0l4.601-2.373c0.705-0.36 1.337-1.373 1.337-2.107v-4.52c0-0.747-0.633-1.747-1.337-2.107l-4.601-2.373c-0.331-0.173-0.791-0.253-1.265-0.253z"></path>
    </symbol>

    <symbol id="icon-chevron-right" viewBox="0 0 38 32">
        <path fill="none" stroke="#fff" style="stroke: var(--color2, #fff)" stroke-linejoin="round" stroke-linecap="round" stroke-miterlimit="4" stroke-width="4" d="M14.784 24l8.627-8-8.627-8"></path>
    </symbol>

    <symbol id="icon-chevron-right-blackh" viewBox="0 0 38 32">
        <path fill="none" stroke="#9197b3" style="stroke: var(--color1, #9197b3)" stroke-linejoin="round" stroke-linecap="round" stroke-miterlimit="4" stroke-width="4" d="M14.784 24l8.627-8-8.627-8"></path>
    </symbol>

    <symbol id="icon-discount-shape-promote" viewBox="0 0 35 32">
        <path fill="#9197b3" style="fill: var(--color1, #9197b3)" d="M17.333 30.334c-0.906 0-1.754-0.32-2.387-0.92l-2.186-2.027c-0.173-0.16-0.633-0.333-0.863-0.333h-3.106c-1.869 0-3.379-1.4-3.379-3.133v-2.88c0-0.213-0.187-0.64-0.359-0.8l-2.186-2.027c-0.633-0.587-0.992-1.373-0.992-2.213s0.345-1.627 0.992-2.213l2.186-2.027c0.173-0.16 0.359-0.587 0.359-0.8v-2.88c0-1.733 1.51-3.133 3.379-3.133h3.106c0.23 0 0.69-0.173 0.863-0.333l2.186-2.027c1.265-1.173 3.509-1.173 4.774 0l2.186 2.027c0.173 0.16 0.633 0.333 0.863 0.333h3.106c1.869 0 3.379 1.4 3.379 3.133v2.88c0 0.213 0.187 0.64 0.359 0.8l2.186 2.027c0.633 0.587 0.992 1.373 0.992 2.213s-0.345 1.627-0.992 2.213l-2.186 2.027c-0.173 0.16-0.359 0.587-0.359 0.8v2.88c0 1.733-1.51 3.133-3.379 3.133h-3.106c-0.23 0-0.69 0.173-0.863 0.333l-2.186 2.027c-0.633 0.6-1.481 0.92-2.387 0.92zM6.578 18.827c0.575 0.533 0.992 1.467 0.992 2.213v2.88c0 0.627 0.546 1.133 1.222 1.133h3.106c0.805 0 1.812 0.387 2.387 0.92l2.186 2.027c0.46 0.427 1.265 0.427 1.726 0l2.186-2.027c0.575-0.533 1.582-0.92 2.387-0.92h3.106c0.676 0 1.222-0.507 1.222-1.133v-2.88c0-0.747 0.417-1.68 0.992-2.213l2.186-2.027c0.23-0.213 0.359-0.493 0.359-0.8s-0.129-0.587-0.359-0.8l-2.186-2.027c-0.575-0.533-0.992-1.467-0.992-2.213v-2.88c0-0.627-0.546-1.133-1.222-1.133h-3.106c-0.805 0-1.812-0.387-2.387-0.92l-2.186-2.027c-0.46-0.427-1.265-0.427-1.726 0l-2.186 2.027c-0.575 0.533-1.582 0.92-2.387 0.92h-3.106c-0.676 0-1.222 0.507-1.222 1.133v2.88c0 0.747-0.417 1.68-0.992 2.213l-2.186 2.027c-0.23 0.213-0.359 0.493-0.359 0.8s0.129 0.587 0.359 0.8l2.186 2.027z"></path>
        <path fill="#9197b3" style="fill: var(--color1, #9197b3)" d="M21.647 21.333c-0.805 0-1.452-0.6-1.452-1.333s0.647-1.333 1.438-1.333c0.791 0 1.438 0.6 1.438 1.333s-0.633 1.333-1.424 1.333z"></path>
        <path fill="#9197b3" style="fill: var(--color1, #9197b3)" d="M13.034 13.333c-0.805 0-1.452-0.6-1.452-1.333s0.647-1.333 1.438-1.333c0.791 0 1.438 0.6 1.438 1.333s-0.633 1.333-1.423 1.333z"></path>
        <path fill="#9197b3" style="fill: var(--color1, #9197b3)" d="M13.019 20.999c-0.273 0-0.546-0.093-0.762-0.293-0.417-0.387-0.417-1.027 0-1.413l8.628-8c0.417-0.387 1.107-0.387 1.524 0s0.417 1.027 0 1.413l-8.627 8c-0.216 0.2-0.489 0.293-0.762 0.293z"></path>
    </symbol>

    <symbol id="icon-key-square" viewBox="0 0 35 32">
        <path fill="none" stroke="#9197b3" style="stroke: var(--color1, #9197b3)" stroke-linejoin="round" stroke-linecap="round" stroke-miterlimit="4" stroke-width="2" d="M13.020 29.333h8.627c7.19 0 10.065-2.667 10.065-9.333v-8c0-6.667-2.876-9.333-10.065-9.333h-8.627c-7.19 0-10.065 2.667-10.065 9.333v8c0 6.667 2.876 9.333 10.065 9.333z"></path>
        <path fill="none" stroke="#9197b3" style="stroke: var(--color1, #9197b3)" stroke-linejoin="round" stroke-linecap="round" stroke-miterlimit="10" stroke-width="2" d="M23.488 18.147c-1.625 1.507-3.954 1.973-6.010 1.373l-3.724 3.44c-0.259 0.253-0.791 0.413-1.179 0.36l-1.726-0.213c-0.575-0.067-1.093-0.573-1.179-1.093l-0.23-1.6c-0.058-0.347 0.129-0.84 0.388-1.093l3.71-3.44c-0.633-1.907-0.144-4.067 1.481-5.573 2.329-2.16 6.126-2.16 8.469 0 2.329 2.147 2.329 5.667 0 7.84z"></path>
        <path fill="none" stroke="#9197b3" style="stroke: var(--color1, #9197b3)" stroke-linejoin="round" stroke-linecap="round" stroke-miterlimit="10" stroke-width="2" d="M15.105 21.707l-1.222-1.147"></path>
        <path fill="none" stroke="#9197b3" style="stroke: var(--color1, #9197b3)" stroke-linejoin="round" stroke-linecap="round" stroke-miterlimit="4" stroke-width="2.6667" d="M19.339 14.267h0.012"></path>
    </symbol>

    <symbol id="icon-message-question-help" viewBox="0 0 35 32">
        <path fill="#9197b3" style="fill: var(--color1, #9197b3)" d="M11.582 29.76c-0.403 0-0.82-0.093-1.194-0.28-0.82-0.4-1.323-1.2-1.323-2.053v-1.893c-4.343-0.413-7.19-3.373-7.19-7.613v-8c0-4.587 3.322-7.667 8.268-7.667h14.379c4.946 0 8.268 3.080 8.268 7.667v8c0 4.587-3.321 7.667-8.268 7.667h-5.421l-6.126 3.787c-0.417 0.253-0.906 0.387-1.395 0.387zM10.144 4.24c-3.71 0-6.111 2.227-6.111 5.667v8c0 3.44 2.401 5.667 6.111 5.667 0.59 0 1.078 0.453 1.078 1v2.84c0 0.173 0.115 0.253 0.187 0.293s0.216 0.080 0.374-0.013l6.399-3.947c0.173-0.107 0.388-0.173 0.604-0.173h5.752c3.71 0 6.111-2.227 6.111-5.667v-8c0-3.44-2.401-5.667-6.111-5.667h-14.393z"></path>
        <path fill="#9197b3" style="fill: var(--color1, #9197b3)" d="M17.333 16.147c-0.59 0-1.078-0.453-1.078-1v-0.28c0-1.547 1.222-2.307 1.682-2.6 0.532-0.333 0.705-0.56 0.705-0.907 0-0.667-0.59-1.213-1.309-1.213s-1.309 0.547-1.309 1.213c0 0.547-0.489 1-1.078 1s-1.078-0.453-1.078-1c0-1.773 1.553-3.213 3.465-3.213s3.465 1.44 3.465 3.213c0 1.52-1.208 2.28-1.654 2.56-0.561 0.347-0.733 0.573-0.733 0.947v0.28c0 0.56-0.489 1-1.078 1z"></path>
        <path fill="#9197b3" style="fill: var(--color1, #9197b3)" d="M17.333 19.467c-0.604 0-1.078-0.453-1.078-1s0.489-1 1.078-1c0.589 0 1.078 0.453 1.078 1s-0.475 1-1.078 1z"></path>
    </symbol>

    <symbol id="icon-search" viewBox="0 0 32 32">
        <path fill="none" stroke="#7e7e7e" style="stroke: var(--color3, #7e7e7e)" stroke-linejoin="round" stroke-linecap="round" stroke-miterlimit="4" stroke-width="2.6667" d="M14.667 25.333c5.891 0 10.667-4.776 10.667-10.667s-4.776-10.667-10.667-10.667c-5.891 0-10.667 4.776-10.667 10.667s4.776 10.667 10.667 10.667z"></path>
        <path fill="none" stroke="#7e7e7e" style="stroke: var(--color3, #7e7e7e)" stroke-linejoin="round" stroke-linecap="round" stroke-miterlimit="4" stroke-width="2.6667" d="M28 28l-5.8-5.8"></path>
    </symbol>

    <symbol id="icon-setting-title" viewBox="0 0 35 32">
        <path d="M17.425 30.173c-0.963 0-1.941-0.2-2.703-0.613l-7.908-4.227c-3.221-2.013-3.422-2.32-3.422-5.48v-7.707c0-3.16 0.187-3.467 3.35-5.453l7.966-4.267c1.51-0.813 3.882-0.813 5.392 0l7.937 4.24c3.221 2.013 3.422 2.32 3.422 5.48v7.693c0 3.16-0.187 3.467-3.35 5.453l-7.966 4.267c-0.776 0.413-1.754 0.613-2.718 0.613zM17.425 3.826c-0.604 0-1.193 0.107-1.61 0.333l-7.908 4.24c-2.344 1.467-2.344 1.467-2.344 3.747v7.693c0 2.28 0 2.28 2.401 3.787l7.851 4.2c0.848 0.453 2.387 0.453 3.235 0l7.909-4.24c2.329-1.467 2.329-1.467 2.329-3.747v-7.693c0-2.28 0-2.28-2.401-3.787l-7.851-4.2c-0.417-0.227-1.007-0.333-1.61-0.333z"></path>
        <path d="M17.425 21c-2.976 0-5.392-2.24-5.392-5s2.416-5 5.392-5c2.976 0 5.392 2.24 5.392 5s-2.416 5-5.392 5zM17.425 13c-1.783 0-3.235 1.347-3.235 3s1.452 3 3.235 3c1.783 0 3.235-1.347 3.235-3s-1.452-3-3.235-3z"></path>
    </symbol>

    <symbol id="icon-user-square-white" viewBox="0 0 35 32">
        <path fill="#9197b3" style="fill: var(--color1, #9197b3)" d="M21.648 30.333h-8.627c-1.898 0-3.48-0.173-4.817-0.547-0.489-0.133-0.805-0.573-0.776-1.040 0.359-3.987 4.716-7.12 9.907-7.12s9.533 3.12 9.907 7.12c0.043 0.48-0.273 0.907-0.777 1.040-1.337 0.373-2.919 0.547-4.817 0.547zM9.742 28.080c0.949 0.173 2.027 0.253 3.278 0.253h8.627c1.251 0 2.329-0.080 3.278-0.253-0.762-2.56-3.911-4.453-7.592-4.453s-6.83 1.893-7.592 4.453z"></path>
        <path fill="none" stroke="#fff" style="stroke: var(--color1, #9197b3)" stroke-linejoin="round" stroke-linecap="round" stroke-miterlimit="4" stroke-width="2" d="M21.647 2.667h-8.627c-7.19 0-10.065 2.667-10.065 9.333v8c0 5.040 1.639 7.8 5.55 8.827 0.316-3.467 4.156-6.2 8.829-6.2s8.512 2.733 8.829 6.2c3.911-1.027 5.55-3.787 5.55-8.827v-8c0-6.667-2.876-9.333-10.065-9.333zM17.333 18.893c-2.847 0-5.148-2.147-5.148-4.787s2.301-4.773 5.148-4.773c2.847 0 5.148 2.133 5.148 4.773s-2.301 4.787-5.148 4.787z"></path>
        <path fill="#9197b3" style="fill: var(--color1, #9197b3)" d="M17.333 19.893c-3.437 0-6.226-2.6-6.226-5.787s2.79-5.773 6.226-5.773c3.437 0 6.226 2.587 6.226 5.773s-2.789 5.787-6.226 5.787zM17.333 10.333c-2.243 0-4.069 1.693-4.069 3.773 0 2.093 1.826 3.787 4.069 3.787s4.069-1.693 4.069-3.787c0-2.080-1.826-3.773-4.069-3.773z"></path>
    </symbol>

    <symbol id="icon-wallet-money" viewBox="0 0 35 32">
        <path fill="none" stroke="#9197b3" style="stroke: var(--color1, #9197b3)" stroke-linejoin="round" stroke-linecap="round" stroke-miterlimit="4" stroke-width="2" d="M15.538 22.481v2.707c0 2.293-2.301 4.147-5.133 4.147s-5.148-1.853-5.148-4.147v-2.707c0 2.293 2.301 3.92 5.148 3.92 2.833 0 5.133-1.64 5.133-3.92z"></path>
        <path fill="none" stroke="#9197b3" style="stroke: var(--color1, #9197b3)" stroke-linejoin="round" stroke-linecap="round" stroke-miterlimit="4" stroke-width="2" d="M15.536 18.813c0 0.667-0.201 1.28-0.546 1.813-0.849 1.293-2.588 2.107-4.601 2.107s-3.753-0.827-4.601-2.107c-0.345-0.533-0.546-1.147-0.546-1.813 0-1.147 0.575-2.173 1.495-2.92 0.935-0.76 2.214-1.213 3.638-1.213s2.703 0.467 3.638 1.213c0.949 0.733 1.524 1.773 1.524 2.92z"></path>
        <path fill="none" stroke="#9197b3" style="stroke: var(--color1, #9197b3)" stroke-linejoin="round" stroke-linecap="round" stroke-miterlimit="4" stroke-width="2" d="M15.538 18.813v3.667c0 2.293-2.301 3.92-5.133 3.92s-5.148-1.64-5.148-3.92v-3.667c0-2.293 2.301-4.147 5.148-4.147 1.424 0 2.703 0.467 3.638 1.213 0.92 0.747 1.495 1.787 1.495 2.933z"></path>
        <path fill="none" stroke="#9197b3" style="stroke: var(--color1, #9197b3)" stroke-linejoin="round" stroke-linecap="round" stroke-miterlimit="4" stroke-width="2" d="M31.712 14.627v2.747c0 0.733-0.633 1.333-1.438 1.36h-2.818c-1.553 0-2.976-1.053-3.106-2.493-0.086-0.84 0.259-1.627 0.863-2.173 0.532-0.507 1.266-0.8 2.071-0.8h2.991c0.805 0.027 1.438 0.627 1.438 1.36z"></path>
        <path fill="none" stroke="#9197b3" style="stroke: var(--color1, #9197b3)" stroke-linejoin="round" stroke-linecap="round" stroke-miterlimit="4" stroke-width="2" d="M2.954 14v-2.667c0-3.627 2.358-6.16 6.025-6.587 0.374-0.053 0.762-0.080 1.165-0.080h12.941c0.374 0 0.733 0.013 1.079 0.067 3.71 0.4 6.111 2.947 6.111 6.6v1.933h-2.991c-0.805 0-1.539 0.293-2.071 0.8-0.604 0.547-0.949 1.333-0.863 2.173 0.129 1.44 1.553 2.493 3.106 2.493h2.818v1.933c0 4-2.876 6.667-7.19 6.667h-3.595"></path>
    </symbol>

</defs>
</svg>

