<svg width="26" height="24" viewBox="0 0 26 24" fill="none" xmlns="http://www.w3.org/2000/svg">
<path d="M16.2353 22.75H9.7647C3.90882 22.75 1.40686 20.43 1.40686 15V9C1.40686 3.57 3.90882 1.25 9.7647 1.25H16.2353C22.0912 1.25 24.5931 3.57 24.5931 9V15C24.5931 20.43 22.0912 22.75 16.2353 22.75ZM9.7647 2.75C4.79313 2.75 3.02451 4.39 3.02451 9V15C3.02451 19.61 4.79313 21.25 9.7647 21.25H16.2353C21.2069 21.25 22.9755 19.61 22.9755 15V9C22.9755 4.39 21.2069 2.75 16.2353 2.75H9.7647Z" fill="#9197B3"/>
<path d="M13.0006 13.0797C12.8604 13.0797 12.7203 13.0497 12.5908 12.9797L6.87516 9.9197C6.48693 9.7097 6.3575 9.2497 6.58397 8.8997C6.81044 8.5397 7.30654 8.4197 7.68399 8.6297L12.9899 11.4797L18.2634 8.6497C18.6516 8.4397 19.1477 8.5697 19.3634 8.9197C19.5791 9.2697 19.4497 9.7397 19.0722 9.9397L13.3997 12.9797C13.281 13.0397 13.1408 13.0797 13.0006 13.0797Z" fill="#9197B3"/>
<path d="M13 18.5201C12.5578 18.5201 12.1912 18.1801 12.1912 17.7701V12.3301C12.1912 11.9201 12.5578 11.5801 13 11.5801C13.4421 11.5801 13.8088 11.9201 13.8088 12.3301V17.7701C13.8088 18.1801 13.4421 18.5201 13 18.5201Z" fill="#9197B3"/>
<path d="M13.0002 18.7498C12.3747 18.7498 11.7601 18.6198 11.2641 18.3698L7.81303 16.5898C6.77774 16.0598 5.97968 14.7898 5.97968 13.6898V10.2998C5.97968 9.20981 6.78852 7.9398 7.81303 7.3998L11.2641 5.6198C12.2562 5.1098 13.7443 5.1098 14.7365 5.6198L18.1875 7.3998C19.2228 7.9298 20.0209 9.19981 20.0209 10.2998V13.6898C20.0209 14.7798 19.212 16.0498 18.1875 16.5898L14.7365 18.3698C14.2404 18.6298 13.6257 18.7498 13.0002 18.7498ZM13.0002 6.7498C12.6443 6.7498 12.2993 6.8098 12.0512 6.9398L8.6003 8.7198C8.07186 8.9898 7.59732 9.7498 7.59732 10.2998V13.6898C7.59732 14.2498 8.07186 14.9998 8.6003 15.2698L12.0512 17.0498C12.5473 17.3098 13.4532 17.3098 13.9493 17.0498L17.4002 15.2698C17.9287 14.9998 18.4033 14.2398 18.4033 13.6898V10.2998C18.4033 9.73981 17.9287 8.9898 17.4002 8.7198L13.9493 6.9398C13.7012 6.8098 13.3561 6.7498 13.0002 6.7498Z" fill="#9197B3"/>
</svg>
