<svg width="26" height="24" viewBox="0 0 26 24" fill="none" xmlns="http://www.w3.org/2000/svg">
<path d="M13 22.7503C12.3206 22.7503 11.6843 22.5104 11.2098 22.0604L9.5706 20.5404C9.44118 20.4204 9.09608 20.2904 8.92353 20.2904H6.59412C5.19215 20.2904 4.05979 19.2403 4.05979 17.9403V15.7804C4.05979 15.6204 3.91959 15.3004 3.79018 15.1804L2.15098 13.6604C1.67647 13.2204 1.40686 12.6303 1.40686 12.0003C1.40686 11.3703 1.66568 10.7803 2.15098 10.3403L3.79018 8.82028C3.91959 8.70028 4.05979 8.3803 4.05979 8.2203V6.06039C4.05979 4.76039 5.19215 3.71029 6.59412 3.71029H8.92353C9.09608 3.71029 9.44118 3.58029 9.5706 3.46029L11.2098 1.94027C12.1588 1.06027 13.8412 1.06027 14.7902 1.94027L16.4294 3.46029C16.5588 3.58029 16.9039 3.71029 17.0765 3.71029H19.4059C20.8078 3.71029 21.9402 4.76039 21.9402 6.06039V8.2203C21.9402 8.3803 22.0804 8.70028 22.2098 8.82028L23.849 10.3403C24.3235 10.7803 24.5931 11.3703 24.5931 12.0003C24.5931 12.6303 24.3343 13.2204 23.849 13.6604L22.2098 15.1804C22.0804 15.3004 21.9402 15.6204 21.9402 15.7804V17.9403C21.9402 19.2403 20.8078 20.2904 19.4059 20.2904H17.0765C16.9039 20.2904 16.5588 20.4204 16.4294 20.5404L14.7902 22.0604C14.3157 22.5104 13.6794 22.7503 13 22.7503ZM4.93332 14.1203C5.36469 14.5203 5.67744 15.2204 5.67744 15.7804V17.9403C5.67744 18.4103 6.08725 18.7904 6.59412 18.7904H8.92353C9.52745 18.7904 10.2824 19.0803 10.7137 19.4803L12.3529 21.0003C12.698 21.3203 13.302 21.3203 13.6471 21.0003L15.2863 19.4803C15.7176 19.0803 16.4725 18.7904 17.0765 18.7904H19.4059C19.9127 18.7904 20.3225 18.4103 20.3225 17.9403V15.7804C20.3225 15.2204 20.6353 14.5203 21.0667 14.1203L22.7059 12.6003C22.8784 12.4403 22.9755 12.2303 22.9755 12.0003C22.9755 11.7703 22.8784 11.5604 22.7059 11.4004L21.0667 9.88034C20.6353 9.48034 20.3225 8.7803 20.3225 8.2203V6.06039C20.3225 5.59039 19.9127 5.21029 19.4059 5.21029H17.0765C16.4725 5.21029 15.7176 4.92035 15.2863 4.52035L13.6471 3.00033C13.302 2.68033 12.698 2.68033 12.3529 3.00033L10.7137 4.52035C10.2824 4.92035 9.52745 5.21029 8.92353 5.21029H6.59412C6.08725 5.21029 5.67744 5.59039 5.67744 6.06039V8.2203C5.67744 8.7803 5.36469 9.48034 4.93332 9.88034L3.29412 11.4004C3.12157 11.5604 3.02451 11.7703 3.02451 12.0003C3.02451 12.2303 3.12157 12.4403 3.29412 12.6003L4.93332 14.1203Z" fill="#9197B3"/>
<path d="M16.2355 16C15.6316 16 15.1463 15.55 15.1463 15C15.1463 14.45 15.6316 14 16.2247 14C16.8179 14 17.3032 14.45 17.3032 15C17.3032 15.55 16.8287 16 16.2355 16Z" fill="#9197B3"/>
<path d="M9.77551 10C9.17158 10 8.68628 9.55 8.68628 9C8.68628 8.45 9.17157 8 9.76471 8C10.3578 8 10.8431 8.45 10.8431 9C10.8431 9.55 10.3686 10 9.77551 10Z" fill="#9197B3"/>
<path d="M9.76413 15.7495C9.55923 15.7495 9.35433 15.6795 9.19257 15.5295C8.87982 15.2395 8.87982 14.7595 9.19257 14.4695L15.6632 8.46945C15.976 8.17945 16.4936 8.17945 16.8063 8.46945C17.1191 8.75945 17.1191 9.23951 16.8063 9.52951L10.3357 15.5295C10.1739 15.6795 9.96904 15.7495 9.76413 15.7495Z" fill="#9197B3"/>
</svg>
