<svg width="26" height="24" viewBox="0 0 26 24" fill="none" xmlns="http://www.w3.org/2000/svg">
<path d="M9.76472 22H16.2353C21.6275 22 23.7843 20 23.7843 15V9C23.7843 4 21.6275 2 16.2353 2H9.76472C4.37256 2 2.2157 4 2.2157 9V15C2.2157 20 4.37256 22 9.76472 22Z" stroke="#9197B3" stroke-width="1.5" stroke-linecap="round" stroke-linejoin="round"/>
<path d="M17.6157 13.61C16.3971 14.74 14.65 15.09 13.1079 14.64L10.3147 17.22C10.1206 17.41 9.72159 17.53 9.43041 17.49L8.13629 17.33C7.70492 17.28 7.31669 16.9 7.25198 16.51L7.07943 15.31C7.03629 15.05 7.17649 14.68 7.37061 14.49L10.153 11.91C9.67845 10.48 10.0451 8.86001 11.2637 7.73001C13.0108 6.11001 15.8579 6.11001 17.6157 7.73001C19.3628 9.34001 19.3628 11.98 17.6157 13.61Z" stroke="#9197B3" stroke-width="1.5" stroke-miterlimit="10" stroke-linecap="round" stroke-linejoin="round"/>
<path d="M11.3284 16.28L10.4117 15.42" stroke="#9197B3" stroke-width="1.5" stroke-miterlimit="10" stroke-linecap="round" stroke-linejoin="round"/>
<path d="M14.5039 10.7H14.5127" stroke="#9197B3" stroke-width="2" stroke-linecap="round" stroke-linejoin="round"/>
</svg>
