<svg width="26" height="24" viewBox="0 0 26 24" fill="none" xmlns="http://www.w3.org/2000/svg">
<path d="M8.68627 22.3199C8.38431 22.3199 8.07154 22.2499 7.79115 22.1099C7.17645 21.8099 6.79902 21.2099 6.79902 20.5699V19.15C3.54215 18.84 1.40686 16.6199 1.40686 13.4399V7.43994C1.40686 3.99994 3.89804 1.68994 7.60784 1.68994H18.3922C22.102 1.68994 24.5931 3.99994 24.5931 7.43994V13.4399C24.5931 16.8799 22.102 19.1899 18.3922 19.1899H14.3265L9.73232 22.03C9.41957 22.22 9.05294 22.3199 8.68627 22.3199ZM7.60784 3.17993C4.82549 3.17993 3.02451 4.84993 3.02451 7.42993V13.43C3.02451 16.01 4.82549 17.68 7.60784 17.68C8.05 17.68 8.41666 18.02 8.41666 18.43V20.56C8.41666 20.69 8.50294 20.75 8.55686 20.78C8.61079 20.81 8.71864 20.84 8.83726 20.77L13.6363 17.81C13.7657 17.73 13.9274 17.68 14.0892 17.68H18.4029C21.1853 17.68 22.9863 16.01 22.9863 13.43V7.42993C22.9863 4.84993 21.1853 3.17993 18.4029 3.17993H7.60784Z" fill="#9197B3"/>
<path d="M12.9998 12.1099C12.5576 12.1099 12.191 11.7699 12.191 11.3599V11.1499C12.191 9.9899 13.1076 9.41989 13.4527 9.19989C13.8518 8.94989 13.9812 8.7799 13.9812 8.5199C13.9812 8.0199 13.539 7.60986 12.9998 7.60986C12.4606 7.60986 12.0184 8.0199 12.0184 8.5199C12.0184 8.9299 11.6518 9.2699 11.2096 9.2699C10.7675 9.2699 10.4008 8.9299 10.4008 8.5199C10.4008 7.1899 11.5655 6.10986 12.9998 6.10986C14.4341 6.10986 15.5988 7.1899 15.5988 8.5199C15.5988 9.6599 14.6929 10.2299 14.3586 10.4399C13.938 10.6999 13.8086 10.8699 13.8086 11.1499V11.3599C13.8086 11.7799 13.442 12.1099 12.9998 12.1099Z" fill="#9197B3"/>
<path d="M13 14.6001C12.547 14.6001 12.1912 14.2601 12.1912 13.8501C12.1912 13.4401 12.5578 13.1001 13 13.1001C13.4421 13.1001 13.8088 13.4401 13.8088 13.8501C13.8088 14.2601 13.4529 14.6001 13 14.6001Z" fill="#9197B3"/>
</svg>
