<svg width="41" height="37" viewBox="0 0 41 37" fill="none" xmlns="http://www.w3.org/2000/svg">
<path d="M20.1474 34.8876C19.0335 34.8876 17.9029 34.6564 17.0217 34.1784L7.8776 29.2914C4.15342 26.9634 3.92065 26.6089 3.92065 22.9551V14.0443C3.92065 10.3905 4.13679 10.0359 7.79447 7.73887L17.0051 2.80553C18.7508 1.86512 21.4941 1.86512 23.2398 2.80553L32.4173 7.70803C36.1414 10.0359 36.3742 10.3905 36.3742 14.0443V22.9397C36.3742 26.5934 36.1581 26.948 32.5004 29.2451L23.2897 34.1784C22.3919 34.6564 21.2613 34.8876 20.1474 34.8876ZM20.1474 4.42428C19.4491 4.42428 18.7675 4.54762 18.2853 4.8097L9.14116 9.7122C6.43115 11.408 6.43115 11.408 6.43115 14.0443V22.9397C6.43115 25.5759 6.43115 25.5759 9.20766 27.318L18.2853 32.1743C19.2662 32.6984 21.0452 32.6984 22.0261 32.1743L31.1703 27.2718C33.8637 25.5759 33.8637 25.5759 33.8637 22.9397V14.0443C33.8637 11.408 33.8637 11.408 31.0872 9.66595L22.0095 4.8097C21.5273 4.54762 20.8457 4.42428 20.1474 4.42428Z" fill="black"/>
<path d="M20.1471 24.2812C16.7056 24.2812 13.9124 21.6912 13.9124 18.5C13.9124 15.3088 16.7056 12.7188 20.1471 12.7188C23.5886 12.7188 26.3818 15.3088 26.3818 18.5C26.3818 21.6912 23.5886 24.2812 20.1471 24.2812ZM20.1471 15.0312C18.0855 15.0312 16.4063 16.5883 16.4063 18.5C16.4063 20.4117 18.0855 21.9688 20.1471 21.9688C22.2087 21.9688 23.8879 20.4117 23.8879 18.5C23.8879 16.5883 22.2087 15.0312 20.1471 15.0312Z" fill="black"/>
</svg>
