<svg aria-hidden="true" style="position: absolute; width: 0; height: 0; overflow: hidden;" version="1.1" xmlns="http://www.w3.org/2000/svg" xmlns:xlink="http://www.w3.org/1999/xlink">
    <defs>
        <symbol id="icon-user-square-white" viewBox="0 0 35 32">
            <path d="M21.648 30.333h-8.627c-1.898 0-3.48-0.173-4.817-0.547-0.489-0.133-0.805-0.573-0.776-1.040 0.359-3.987 4.716-7.12 9.907-7.12s9.533 3.12 9.907 7.12c0.043 0.48-0.273 0.907-0.777 1.040-1.337 0.373-2.919 0.547-4.817 0.547zM9.742 28.080c0.949 0.173 2.027 0.253 3.278 0.253h8.627c1.251 0 2.329-0.080 3.278-0.253-0.762-2.56-3.911-4.453-7.592-4.453s-6.83 1.893-7.592 4.453z"></path>
            <path stroke-linejoin="round" stroke-linecap="round" stroke-miterlimit="4" stroke-width="2" d="M21.647 2.667h-8.627c-7.19 0-10.065 2.667-10.065 9.333v8c0 5.040 1.639 7.8 5.55 8.827 0.316-3.467 4.156-6.2 8.829-6.2s8.512 2.733 8.829 6.2c3.911-1.027 5.55-3.787 5.55-8.827v-8c0-6.667-2.876-9.333-10.065-9.333zM17.333 18.893c-2.847 0-5.148-2.147-5.148-4.787s2.301-4.773 5.148-4.773c2.847 0 5.148 2.133 5.148 4.773s-2.301 4.787-5.148 4.787z"></path>
            <path d="M17.333 19.893c-3.437 0-6.226-2.6-6.226-5.787s2.79-5.773 6.226-5.773c3.437 0 6.226 2.587 6.226 5.773s-2.789 5.787-6.226 5.787zM17.333 10.333c-2.243 0-4.069 1.693-4.069 3.773 0 2.093 1.826 3.787 4.069 3.787s4.069-1.693 4.069-3.787c0-2.080-1.826-3.773-4.069-3.773z"></path>
        </symbol>

        <symbol id="icon-user-square-1" viewBox="0 0 35 32">
            <path fill="#fff" style="fill: var(--color1, #fff)" d="M21.648 30.333h-8.627c-1.898 0-3.48-0.173-4.817-0.547-0.489-0.133-0.805-0.573-0.776-1.040 0.359-3.987 4.716-7.12 9.907-7.12s9.533 3.12 9.907 7.12c0.043 0.48-0.273 0.907-0.777 1.040-1.337 0.373-2.919 0.547-4.817 0.547zM9.742 28.080c0.949 0.173 2.027 0.253 3.278 0.253h8.627c1.251 0 2.329-0.080 3.278-0.253-0.762-2.56-3.911-4.453-7.592-4.453s-6.83 1.893-7.592 4.453z"></path>
            <path fill="none" stroke="#fff" style="stroke: var(--color1, #fff)" stroke-linejoin="round" stroke-linecap="round" stroke-miterlimit="4" stroke-width="2" d="M21.647 2.667h-8.627c-7.19 0-10.065 2.667-10.065 9.333v8c0 5.040 1.639 7.8 5.55 8.827 0.316-3.467 4.156-6.2 8.829-6.2s8.512 2.733 8.829 6.2c3.911-1.027 5.55-3.787 5.55-8.827v-8c0-6.667-2.876-9.333-10.065-9.333zM17.333 18.893c-2.847 0-5.148-2.147-5.148-4.787s2.301-4.773 5.148-4.773c2.847 0 5.148 2.133 5.148 4.773s-2.301 4.787-5.148 4.787z"></path>
            <path fill="#fff" style="fill: var(--color1, #fff)" d="M17.333 19.893c-3.437 0-6.226-2.6-6.226-5.787s2.79-5.773 6.226-5.773c3.437 0 6.226 2.587 6.226 5.773s-2.789 5.787-6.226 5.787zM17.333 10.333c-2.243 0-4.069 1.693-4.069 3.773 0 2.093 1.826 3.787 4.069 3.787s4.069-1.693 4.069-3.787c0-2.080-1.826-3.773-4.069-3.773z"></path>
        </symbol>

        <symbol id="icon-user-square-1" viewBox="0 0 35 32">
            <path d="M21.648 30.333h-8.627c-1.898 0-3.48-0.173-4.817-0.547-0.489-0.133-0.805-0.573-0.776-1.040 0.359-3.987 4.716-7.12 9.907-7.12s9.533 3.12 9.907 7.12c0.043 0.48-0.273 0.907-0.777 1.040-1.337 0.373-2.919 0.547-4.817 0.547zM9.742 28.080c0.949 0.173 2.027 0.253 3.278 0.253h8.627c1.251 0 2.329-0.080 3.278-0.253-0.762-2.56-3.911-4.453-7.592-4.453s-6.83 1.893-7.592 4.453z"></path>
            <path stroke-linejoin="round" stroke-linecap="round" stroke-miterlimit="4" stroke-width="2" d="M21.647 2.667h-8.627c-7.19 0-10.065 2.667-10.065 9.333v8c0 5.040 1.639 7.8 5.55 8.827 0.316-3.467 4.156-6.2 8.829-6.2s8.512 2.733 8.829 6.2c3.911-1.027 5.55-3.787 5.55-8.827v-8c0-6.667-2.876-9.333-10.065-9.333zM17.333 18.893c-2.847 0-5.148-2.147-5.148-4.787s2.301-4.773 5.148-4.773c2.847 0 5.148 2.133 5.148 4.773s-2.301 4.787-5.148 4.787z"></path>
        </symbol>
    </defs>
</svg>
