<!-- Generated by IcoMoon.io -->
<svg version="1.1" xmlns="http://www.w3.org/2000/svg" width="1109" height="1024" viewBox="0 0 1109 1024">
<g id="icomoon-ignore">
</g>
<path fill="#000" d="M692.736 970.658h-276.078c-60.737 0-111.352-5.547-154.144-17.493-15.645-4.267-25.767-18.347-24.847-33.28 11.503-127.573 150.923-227.844 317.029-227.844s305.067 99.844 317.030 227.844c1.378 15.36-8.742 29.013-24.849 33.28-42.79 11.947-93.406 17.493-154.142 17.493zM311.748 898.551c30.369 5.547 64.879 8.107 104.91 8.107h276.078c40.030 0 74.539-2.56 104.909-8.107-24.388-81.92-125.154-142.511-242.948-142.511s-218.561 60.591-242.948 142.511z"></path>
<path fill="none" stroke-linejoin="round" stroke-linecap="round" stroke-miterlimit="4" stroke-width="64" stroke="#000" d="M692.706 85.333h-276.078c-230.065 0-322.092 85.333-322.092 298.667v256c0 161.28 52.455 249.6 177.61 282.453 10.123-110.933 132.978-198.4 282.52-198.4s272.397 87.467 282.522 198.4c125.154-32.853 177.609-121.173 177.609-282.453v-256c0-213.333-92.023-298.667-322.091-298.667zM554.667 604.587c-91.106 0-164.726-68.693-164.726-153.173s73.62-152.747 164.726-152.747c91.106 0 164.727 68.268 164.727 152.747s-73.621 153.173-164.727 153.173z"></path>
<path fill="#000" d="M554.662 636.587c-109.969 0-199.235-83.2-199.235-185.173s89.266-184.747 199.235-184.747c109.973 0 199.236 82.774 199.236 184.747s-89.263 185.173-199.236 185.173zM554.662 330.667c-71.778 0-130.216 54.188-130.216 120.747 0 66.987 58.438 121.173 130.216 121.173 71.782 0 130.219-54.187 130.219-121.173 0-66.559-58.436-120.747-130.219-120.747z"></path>
</svg>
