<svg width="26" height="24" viewBox="0 0 26 24" fill="none" xmlns="http://www.w3.org/2000/svg">
<path d="M16.236 22.7498H9.76543C8.3419 22.7498 7.15562 22.6198 6.15268 22.3398C5.78601 22.2398 5.54876 21.9098 5.57033 21.5598C5.83994 18.5698 9.10758 16.2197 13.0007 16.2197C16.8938 16.2197 20.1507 18.5598 20.4311 21.5598C20.4634 21.9198 20.2262 22.2398 19.8487 22.3398C18.8458 22.6198 17.6595 22.7498 16.236 22.7498ZM7.3066 21.0598C8.01837 21.1898 8.82719 21.2498 9.76543 21.2498H16.236C17.1742 21.2498 17.983 21.1898 18.6948 21.0598C18.1232 19.1398 15.7615 17.7197 13.0007 17.7197C10.2399 17.7197 7.87817 19.1398 7.3066 21.0598Z" fill="white"/>
<path d="M16.2353 2H9.76472C4.37256 2 2.2157 4 2.2157 9V15C2.2157 18.78 3.44511 20.85 6.37844 21.62C6.6157 19.02 9.49511 16.97 13 16.97C16.5049 16.97 19.3843 19.02 19.6216 21.62C22.5549 20.85 23.7843 18.78 23.7843 15V9C23.7843 4 21.6275 2 16.2353 2ZM13 14.17C10.8647 14.17 9.13923 12.56 9.13923 10.58C9.13923 8.60002 10.8647 7 13 7C15.1353 7 16.8608 8.60002 16.8608 10.58C16.8608 12.56 15.1353 14.17 13 14.17Z" stroke="white" stroke-width="1.5" stroke-linecap="round" stroke-linejoin="round"/>
<path d="M12.9999 14.92C10.4225 14.92 8.33032 12.97 8.33032 10.58C8.33032 8.19002 10.4225 6.25 12.9999 6.25C15.5774 6.25 17.6695 8.19002 17.6695 10.58C17.6695 12.97 15.5774 14.92 12.9999 14.92ZM12.9999 7.75C11.3176 7.75 9.94797 9.02002 9.94797 10.58C9.94797 12.15 11.3176 13.42 12.9999 13.42C14.6823 13.42 16.0519 12.15 16.0519 10.58C16.0519 9.02002 14.6823 7.75 12.9999 7.75Z" fill="white"/>
</svg>
