<!-- Generated by IcoMoon.io -->
<svg version="1.1" xmlns="http://www.w3.org/2000/svg" width="555" height="512" viewBox="0 0 555 512">
<g id="icomoon-ignore">
</g>
<path fill="#000" d="M346.286 477.331h-138.039c-30.369 0-55.676-2.774-77.072-8.747-7.823-2.134-12.883-9.173-12.424-16.64 5.752-63.786 75.462-113.922 158.514-113.922s152.534 49.922 158.515 113.922c0.689 7.68-4.371 14.507-12.425 16.64-21.395 5.974-46.703 8.747-77.071 8.747zM155.792 441.277c15.184 2.774 32.44 4.053 52.455 4.053h138.039c20.015 0 37.269-1.28 52.454-4.053-12.194-40.96-62.577-71.255-121.474-71.255s-109.281 30.296-121.474 71.255z"></path>
<path fill="none" stroke-linejoin="round" stroke-linecap="round" stroke-miterlimit="4" stroke-width="32" stroke="#000" d="M346.271 34.669h-138.039c-115.032 0-161.046 42.667-161.046 149.333v128c0 80.64 26.227 124.8 88.805 141.226 5.061-55.466 66.489-99.2 141.26-99.2s136.199 43.733 141.261 99.2c62.577-16.426 88.805-60.587 88.805-141.226v-128c0-106.666-46.012-149.333-161.046-149.333zM277.251 294.296c-45.553 0-82.363-34.346-82.363-76.587s36.81-76.374 82.363-76.374c45.553 0 82.363 34.134 82.363 76.374s-36.81 76.587-82.363 76.587z"></path>
</svg>
