<svg width="26" height="24" viewBox="0 0 26 24" fill="none" xmlns="http://www.w3.org/2000/svg">
<path d="M11.6537 16.8604V18.8904C11.6537 20.6104 9.92819 22.0004 7.80368 22.0004C5.67917 22.0004 3.94287 20.6104 3.94287 18.8904V16.8604C3.94287 18.5804 5.66838 19.8004 7.80368 19.8004C9.92819 19.8004 11.6537 18.5704 11.6537 16.8604Z" stroke="#9197B3" stroke-width="1.5" stroke-linecap="round" stroke-linejoin="round"/>
<path d="M11.6521 14.11C11.6521 14.61 11.5011 15.07 11.2423 15.47C10.6059 16.44 9.30102 17.05 7.79121 17.05C6.28141 17.05 4.97649 16.43 4.34022 15.47C4.0814 15.07 3.93048 14.61 3.93048 14.11C3.93048 13.25 4.36183 12.48 5.05203 11.92C5.75301 11.35 6.71277 11.01 7.78042 11.01C8.84806 11.01 9.8079 11.36 10.5089 11.92C11.2207 12.47 11.6521 13.25 11.6521 14.11Z" stroke="#9197B3" stroke-width="1.5" stroke-linecap="round" stroke-linejoin="round"/>
<path d="M11.6537 14.11V16.86C11.6537 18.58 9.92819 19.8 7.80368 19.8C5.67917 19.8 3.94287 18.57 3.94287 16.86V14.11C3.94287 12.39 5.66838 11 7.80368 11C8.87132 11 9.83116 11.35 10.5321 11.91C11.2223 12.47 11.6537 13.25 11.6537 14.11Z" stroke="#9197B3" stroke-width="1.5" stroke-linecap="round" stroke-linejoin="round"/>
<path d="M23.7843 10.9699V13.03C23.7843 13.58 23.3098 14.0299 22.7059 14.0499H20.5921C19.4274 14.0499 18.3598 13.2599 18.2628 12.1799C18.1981 11.5499 18.4568 10.9599 18.9097 10.5499C19.3087 10.1699 19.8589 9.94995 20.4628 9.94995H22.7059C23.3098 9.96995 23.7843 10.4199 23.7843 10.9699Z" stroke="#9197B3" stroke-width="1.5" stroke-linecap="round" stroke-linejoin="round"/>
<path d="M2.2157 10.5V8.5C2.2157 5.78 3.98433 3.88 6.73433 3.56C7.01472 3.52 7.30589 3.5 7.60786 3.5H17.3137C17.5941 3.5 17.8637 3.50999 18.1226 3.54999C20.9049 3.84999 22.7059 5.76 22.7059 8.5V9.95001H20.4628C19.8588 9.95001 19.3088 10.17 18.9098 10.55C18.4569 10.96 18.1981 11.55 18.2628 12.18C18.3598 13.26 19.4275 14.05 20.5922 14.05H22.7059V15.5C22.7059 18.5 20.549 20.5 17.3137 20.5H14.6177" stroke="#9197B3" stroke-width="1.5" stroke-linecap="round" stroke-linejoin="round"/>
</svg>
